<svg viewBox="0 0 100 88.537" xmlns="http://www.w3.org/2000/svg"><g fill="#fff"><g xmlns="http://www.w3.org/2000/svg"><path d="m50.006 62.137 8.643-13.782-8.643 13.782zM99.53 85.264 80.84 48.705c-.35-.817-1.168-1.051-2.102-1.051H64.723l5.49-8.994c.233-.35.467-.817.584-1.168l.467-.817c0-.117.117-.234.117-.35 2.102-3.388 3.27-7.593 3.27-11.68C74.651 11.094 63.555 0 50.006 0S25.361 11.096 25.361 24.644c0 4.205 1.052 8.41 3.27 12.148l.351.467c.234.467.467 1.051.701 1.401l5.49 8.994H21.157c-.935 0-1.752.35-2.103 1.051L.25 85.614c-.35.7-.35 1.402.117 2.102s1.168.818 1.986.818H97.66c1.284 0 2.336-.818 2.336-2.102 0-.584-.117-.818-.468-1.168zm-65.993-49.29-.7-1.051-.234-.584a20.144 20.144 0 0 1-2.57-9.811c0-10.98 8.994-19.973 19.973-19.973s19.973 8.993 19.973 20.09c0 3.387-.934 6.774-2.57 9.81v.117l-.35.584c-.117.234-.35.584-.467.818 0 0 0 .117-.117.117l-7.709 12.38-8.643 13.783-8.643-13.782-7.943-12.498zM6.09 83.862l16.47-31.536h15.534l9.928 15.651c.467.701 1.168 1.051 1.985 1.051s1.519-.233 1.986-.934l9.928-15.768h15.534l16.469 31.536H6.089z"/></g><path d="M61.803 26.396c0-1.05-.7-2.102-1.752-2.102h-.934c0-5.957-3.972-7.008-4.088-7.008h-9.695c-.117 0-4.088 1.051-4.088 7.008h-.934c-1.051 0-1.752 1.168-1.752 2.102v6.074h3.387v2.336h2.336V32.47h11.68v2.336h2.336V32.47h3.504v-6.074zM41.713 29.9c-.7 0-1.284-.584-1.284-1.284s.584-1.285 1.284-1.285 1.402.467 1.402 1.168-.7 1.401-1.402 1.401zm14.25-5.606h-11.68v-3.27c0-.818.7-1.519 1.518-1.519h8.76c.818 0 1.519.701 1.519 1.519v3.27zm2.57 5.606c-.701 0-1.285-.584-1.285-1.284s.584-1.285 1.285-1.285 1.284.584 1.284 1.285-.584 1.284-1.284 1.284z" xmlns="http://www.w3.org/2000/svg"/></g></svg>