<svg height="88.53709242471" width="320">
        <defs id="SvgjsDefs1001"></defs>
        <g
          id="SvgjsG1007"
          transform="matrix(1.1680354730890319,0,0,1.1680354730890319,-8.276882005978303,-10.745925015708576)"
          fill="#f3f6f6">
          <g xmlns="http://www.w3.org/2000/svg">
            <path d="M49.9,62.4L49.9,62.4l7.4-11.8L49.9,62.4z"></path>
            <path d="M92.3,82.2l-16-31.3c-0.3-0.7-1-0.9-1.8-0.9h-12l4.7-7.7c0.2-0.3,0.4-0.7,0.5-1l0.4-0.7c0-0.1,0.1-0.2,0.1-0.3   C70,37.4,71,33.8,71,30.3c0-11.6-9.5-21.1-21.1-21.1c-11.6,0-21.1,9.5-21.1,21.1c0,3.6,0.9,7.2,2.8,10.4l0.3,0.4   c0.2,0.4,0.4,0.9,0.6,1.2l4.7,7.7h-12c-0.8,0-1.5,0.3-1.8,0.9L7.3,82.5C7,83.1,7,83.7,7.4,84.3c0.4,0.6,1,0.7,1.7,0.7h81.6   c0,0,0,0,0,0c1.1,0,2-0.7,2-1.8C92.7,82.7,92.6,82.5,92.3,82.2z M35.8,40c-0.2-0.3-0.4-0.6-0.6-0.9L35,38.6   c-1.4-2.5-2.2-5.4-2.2-8.4c0-9.4,7.7-17.1,17.1-17.1S67,20.8,67,30.3c0,2.9-0.8,5.8-2.2,8.4c0,0,0,0.1,0,0.1l-0.3,0.5   c-0.1,0.2-0.3,0.5-0.4,0.7c0,0,0,0.1-0.1,0.1l-6.6,10.6l-7.4,11.8l0,0l-7.4-11.8c0,0,0,0,0,0L35.8,40z M12.3,81l14.1-27h13.3   l8.5,13.4c0.4,0.6,1,0.9,1.7,0.9c0.7,0,1.3-0.2,1.7-0.8L60.1,54h13.3l14.1,27H12.3z"></path>
          </g>
          <path
            xmlns="http://www.w3.org/2000/svg"
            d="M60,31.8c0-0.9-0.6-1.8-1.5-1.8h-0.8c0-5.1-3.4-6-3.5-6L54,24l-4,0l-4,0l-0.1,0c-0.1,0-3.5,0.9-3.5,6h-0.8  c-0.9,0-1.5,1-1.5,1.8c0,0,0,0,0,0v0v0.6v2.7v1.4V37h0.5h1H43v2h2v-2h5h5v2h2v-2h1.5h1H60v-0.5v-1.4v-2.7L60,31.8L60,31.8  C60,31.8,60,31.8,60,31.8z M42.8,34.8c-0.6,0-1.1-0.5-1.1-1.1s0.5-1.1,1.1-1.1S44,33,44,33.6S43.4,34.8,42.8,34.8z M55,30h-5h-5  v-2.8c0-0.7,0.6-1.3,1.3-1.3H50h3.8c0.7,0,1.3,0.6,1.3,1.3V30z M57.2,34.8c-0.6,0-1.1-0.5-1.1-1.1s0.5-1.1,1.1-1.1s1.1,0.5,1.1,1.1  S57.8,34.8,57.2,34.8z"></path>
        </g>
        <g
          id="SvgjsG1008"
          transform="matrix(2.7964204146029505,0,0,2.7964204146029505,116.14093884110443,8.004475815183476)"
          fill="#f3f6f6">
          <path d="M7.84 5.720000000000001 c1.52 0 2.72 0.41334 3.6 1.24 s1.32 1.94 1.32 3.34 c0 1.4133 -0.44 2.53 -1.32 3.35 s-2.0734 1.23 -3.58 1.23 l-3.34 0 l0 5.12 l-3.14 0 l0 -14.28 l6.46 0 z M7.02 12.440000000000001 c0.90666 0 1.5833 -0.16666 2.03 -0.5 s0.67 -0.88 0.67 -1.64 c0 -0.73334 -0.21666 -1.2733 -0.65 -1.62 s-1.11 -0.52 -2.03 -0.52 l-2.52 0 l0 4.28 l2.5 0 z M19.18 9.38 c3.0134 0.01334 4.52 0.9933 4.52 2.94 l0 5.48 c0 1.0133 0.12 1.7467 0.36 2.2 l-2.88 0 c-0.10666 -0.32 -0.17332 -0.65334 -0.19998 -1 c-0.84 0.85334 -2 1.28 -3.48 1.28 c-1.08 0 -1.9367 -0.27334 -2.57 -0.82 s-0.95 -1.3067 -0.95 -2.28 c0 -0.94666 0.3 -1.68 0.9 -2.2 c0.61334 -0.54666 1.7267 -0.89332 3.34 -1.04 c1.1467 -0.12 1.8733 -0.27 2.18 -0.45 s0.46 -0.45666 0.46 -0.83 c0 -0.46666 -0.14 -0.81332 -0.42 -1.04 s-0.74666 -0.34 -1.4 -0.34 c-0.6 0 -1.0533 0.12334 -1.36 0.37 s-0.48666 0.64332 -0.54 1.19 l-2.84 0 c0.06666 -1.1333 0.53332 -1.9933 1.4 -2.58 s2.0266 -0.88 3.48 -0.88 z M16.82 17.06 c0 0.88 0.58 1.32 1.74 1.32 c1.52 -0.01334 2.2866 -0.79334 2.3 -2.34 l0 -1.1 c-0.22666 0.22666 -0.8 0.39332 -1.72 0.49998 c-0.8 0.09334 -1.3867 0.25668 -1.76 0.49002 s-0.56 0.61 -0.56 1.13 z M31.94 9.38 c0.24 0 0.44668 0.03334 0.62002 0.1 l0 2.64 c-0.30666 -0.06666 -0.64666 -0.1 -1.02 -0.1 c-1.8667 0 -2.8 1.1067 -2.8 3.32 l0 4.66 l-2.84 0 l0 -10.34 l2.7 0 l0 1.92 l0.04 0 c0.28 -0.66666 0.72334 -1.2 1.33 -1.6 s1.2633 -0.6 1.97 -0.6 z M36.78 5.720000000000001 l0 7.66 l3.58 -3.72 l3.36 0 l-3.9 3.8 l4.34 6.54 l-3.44 0 l-2.84 -4.62 l-1.1 1.06 l0 3.56 l-2.84 0 l0 -14.28 l2.84 0 z M51.92 5.720000000000001 c1.52 0 2.72 0.41334 3.6 1.24 s1.32 1.94 1.32 3.34 c0 1.4133 -0.44 2.53 -1.32 3.35 s-2.0734 1.23 -3.58 1.23 l-3.34 0 l0 5.12 l-3.14 0 l0 -14.28 l6.46 0 z M51.099999999999994 12.440000000000001 c0.90666 0 1.5833 -0.16666 2.03 -0.5 s0.67 -0.88 0.67 -1.64 c0 -0.73334 -0.21666 -1.2733 -0.65 -1.62 s-1.11 -0.52 -2.03 -0.52 l-2.52 0 l0 4.28 l2.5 0 z M63.260000000000005 9.38 c3.0134 0.01334 4.52 0.9933 4.52 2.94 l0 5.48 c0 1.0133 0.12 1.7467 0.36 2.2 l-2.88 0 c-0.10666 -0.32 -0.17332 -0.65334 -0.19998 -1 c-0.84 0.85334 -2 1.28 -3.48 1.28 c-1.08 0 -1.9367 -0.27334 -2.57 -0.82 s-0.95 -1.3067 -0.95 -2.28 c0 -0.94666 0.3 -1.68 0.9 -2.2 c0.61334 -0.54666 1.7267 -0.89332 3.34 -1.04 c1.1467 -0.12 1.8733 -0.27 2.18 -0.45 s0.46 -0.45666 0.46 -0.83 c0 -0.46666 -0.14 -0.81332 -0.42 -1.04 s-0.74666 -0.34 -1.4 -0.34 c-0.6 0 -1.0533 0.12334 -1.36 0.37 s-0.48666 0.64332 -0.54 1.19 l-2.84 0 c0.06666 -1.1333 0.53332 -1.9933 1.4 -2.58 s2.0266 -0.88 3.48 -0.88 z M60.9 17.06 c0 0.88 0.58 1.32 1.74 1.32 c1.52 -0.01334 2.2866 -0.79334 2.3 -2.34 l0 -1.1 c-0.22666 0.22666 -0.8 0.39332 -1.72 0.49998 c-0.8 0.09334 -1.3867 0.25668 -1.76 0.49002 s-0.56 0.61 -0.56 1.13 z M72.9 5.720000000000001 l0 14.28 l-2.84 0 l0 -14.28 l2.84 0 z"></path>
        </g>
      </svg>