<?xml version="1.0" encoding="UTF-8"?>
<svg viewBox="0 0 320 88.537" xmlns="http://www.w3.org/2000/svg">
<g transform="matrix(1.168 0 0 1.168 -8.2769 -10.746)" fill="#7145D6">
<g xmlns="http://www.w3.org/2000/svg">
<path d="m49.9 62.4 7.4-11.8-7.4 11.8z"/>
<path d="m92.3 82.2-16-31.3c-0.3-0.7-1-0.9-1.8-0.9h-12l4.7-7.7c0.2-0.3 0.4-0.7 0.5-1l0.4-0.7c0-0.1 0.1-0.2 0.1-0.3 1.8-2.9 2.8-6.5 2.8-10 0-11.6-9.5-21.1-21.1-21.1s-21.1 9.5-21.1 21.1c0 3.6 0.9 7.2 2.8 10.4l0.3 0.4c0.2 0.4 0.4 0.9 0.6 1.2l4.7 7.7h-12c-0.8 0-1.5 0.3-1.8 0.9l-16.1 31.6c-0.3 0.6-0.3 1.2 0.1 1.8s1 0.7 1.7 0.7h81.6c1.1 0 2-0.7 2-1.8 0-0.5-0.1-0.7-0.4-1zm-56.5-42.2-0.6-0.9-0.2-0.5c-1.4-2.5-2.2-5.4-2.2-8.4 0-9.4 7.7-17.1 17.1-17.1s17.1 7.7 17.1 17.2c0 2.9-0.8 5.8-2.2 8.4v0.1l-0.3 0.5c-0.1 0.2-0.3 0.5-0.4 0.7 0 0 0 0.1-0.1 0.1l-6.6 10.6-7.4 11.8-7.4-11.8-6.8-10.7zm-23.5 41 14.1-27h13.3l8.5 13.4c0.4 0.6 1 0.9 1.7 0.9s1.3-0.2 1.7-0.8l8.5-13.5h13.3l14.1 27h-75.2z"/>
</g>
<path d="m60 31.8c0-0.9-0.6-1.8-1.5-1.8h-0.8c0-5.1-3.4-6-3.5-6h-0.2-4-4-0.1c-0.1 0-3.5 0.9-3.5 6h-0.8c-0.9 0-1.5 1-1.5 1.8v5.2h2.9v2h2v-2h10v2h2v-2h3v-4.6-0.6zm-17.2 3c-0.6 0-1.1-0.5-1.1-1.1s0.5-1.1 1.1-1.1 1.2 0.4 1.2 1-0.6 1.2-1.2 1.2zm12.2-4.8h-10v-2.8c0-0.7 0.6-1.3 1.3-1.3h7.5c0.7 0 1.3 0.6 1.3 1.3v2.8zm2.2 4.8c-0.6 0-1.1-0.5-1.1-1.1s0.5-1.1 1.1-1.1 1.1 0.5 1.1 1.1-0.5 1.1-1.1 1.1z" xmlns="http://www.w3.org/2000/svg"/>
</g>
<g transform="matrix(2.7964 0 0 2.7964 116.14 8.0045)" fill="#7145D6">
<path d="m7.84 5.72c1.52 0 2.72 0.41334 3.6 1.24s1.32 1.94 1.32 3.34c0 1.4133-0.44 2.53-1.32 3.35s-2.0734 1.23-3.58 1.23h-3.34v5.12h-3.14v-14.28h6.46zm-0.82 6.72c0.90666 0 1.5833-0.16666 2.03-0.5s0.67-0.88 0.67-1.64c0-0.73334-0.21666-1.2733-0.65-1.62s-1.11-0.52-2.03-0.52h-2.52v4.28h2.5zm12.16-3.06c3.0134 0.01334 4.52 0.9933 4.52 2.94v5.48c0 1.0133 0.12 1.7467 0.36 2.2h-2.88c-0.10666-0.32-0.17332-0.65334-0.19998-1-0.84 0.85334-2 1.28-3.48 1.28-1.08 0-1.9367-0.27334-2.57-0.82s-0.95-1.3067-0.95-2.28c0-0.94666 0.3-1.68 0.9-2.2 0.61334-0.54666 1.7267-0.89332 3.34-1.04 1.1467-0.12 1.8733-0.27 2.18-0.45s0.46-0.45666 0.46-0.83c0-0.46666-0.14-0.81332-0.42-1.04s-0.74666-0.34-1.4-0.34c-0.6 0-1.0533 0.12334-1.36 0.37s-0.48666 0.64332-0.54 1.19h-2.84c0.06666-1.1333 0.53332-1.9933 1.4-2.58s2.0266-0.88 3.48-0.88zm-2.36 7.68c0 0.88 0.58 1.32 1.74 1.32 1.52-0.01334 2.2866-0.79334 2.3-2.34v-1.1c-0.22666 0.22666-0.8 0.39332-1.72 0.49998-0.8 0.09334-1.3867 0.25668-1.76 0.49002s-0.56 0.61-0.56 1.13zm15.12-7.68c0.24 0 0.44668 0.03334 0.62002 0.1v2.64c-0.30666-0.06666-0.64666-0.1-1.02-0.1-1.8667 0-2.8 1.1067-2.8 3.32v4.66h-2.84v-10.34h2.7v1.92h0.04c0.28-0.66666 0.72334-1.2 1.33-1.6s1.2633-0.6 1.97-0.6zm4.84-3.66v7.66l3.58-3.72h3.36l-3.9 3.8 4.34 6.54h-3.44l-2.84-4.62-1.1 1.06v3.56h-2.84v-14.28h2.84zm15.14 0c1.52 0 2.72 0.41334 3.6 1.24s1.32 1.94 1.32 3.34c0 1.4133-0.44 2.53-1.32 3.35s-2.0734 1.23-3.58 1.23h-3.34v5.12h-3.14v-14.28h6.46zm-0.82 6.72c0.90666 0 1.5833-0.16666 2.03-0.5s0.67-0.88 0.67-1.64c0-0.73334-0.21666-1.2733-0.65-1.62s-1.11-0.52-2.03-0.52h-2.52v4.28h2.5zm12.16-3.06c3.0134 0.01334 4.52 0.9933 4.52 2.94v5.48c0 1.0133 0.12 1.7467 0.36 2.2h-2.88c-0.10666-0.32-0.17332-0.65334-0.19998-1-0.84 0.85334-2 1.28-3.48 1.28-1.08 0-1.9367-0.27334-2.57-0.82s-0.95-1.3067-0.95-2.28c0-0.94666 0.3-1.68 0.9-2.2 0.61334-0.54666 1.7267-0.89332 3.34-1.04 1.1467-0.12 1.8733-0.27 2.18-0.45s0.46-0.45666 0.46-0.83c0-0.46666-0.14-0.81332-0.42-1.04s-0.74666-0.34-1.4-0.34c-0.6 0-1.0533 0.12334-1.36 0.37s-0.48666 0.64332-0.54 1.19h-2.84c0.06666-1.1333 0.53332-1.9933 1.4-2.58s2.0266-0.88 3.48-0.88zm-2.36 7.68c0 0.88 0.58 1.32 1.74 1.32 1.52-0.01334 2.2866-0.79334 2.3-2.34v-1.1c-0.22666 0.22666-0.8 0.39332-1.72 0.49998-0.8 0.09334-1.3867 0.25668-1.76 0.49002s-0.56 0.61-0.56 1.13zm12-11.34v14.28h-2.84v-14.28h2.84z"/>
</g>
</svg>
